<svg id="Layer_1" enable-background="new 0 0 512 512" height="512" viewBox="0 0 512 512" width="512" xmlns="http://www.w3.org/2000/svg"><g><g><g><g><g><g><g><g id="XMLID_3880_"><g id="XMLID_3881_"><g id="XMLID_3882_"><g id="XMLID_3883_"><g id="XMLID_3884_"><g id="XMLID_3885_"><g id="XMLID_3886_"><g id="XMLID_3887_"><g id="XMLID_3888_"><g id="XMLID_3889_"><g id="XMLID_3890_"><g id="XMLID_3891_"><g id="XMLID_3892_"><g id="XMLID_3893_"><g id="XMLID_3894_"><circle cx="256" cy="256" fill="#075799" r="256"/></g></g></g></g></g></g></g></g></g></g></g></g></g></g></g></g></g></g></g></g></g><path d="m508.903 295.874-220.896-220.896-206.926 314.921 115.042 115.042c19.21 4.604 39.255 7.059 59.877 7.059 127.82 0 233.751-93.68 252.903-216.126z" fill="#003b60"/><path d="m220.843 79.067-150.612 253.687c-17.371 29.26 3.716 66.302 37.744 66.302h296.051c34.048 0 55.133-37.084 37.72-66.343l-150.978-253.684c-15.778-26.512-54.175-26.492-69.925.038z" fill="#ffdc6e"/><path d="m404.03 399.06h-148.03v-339.9c13.47.06 26.91 6.68 34.77 19.87l150.97 253.68c17.42 29.26-3.67 66.35-37.71 66.35z" fill="#ffb217"/><g><g><g><path d="m352.3 355.44h-197.62c-.473 0-.943-.011-1.408-.032-28.475-1.297-31.575-40.572-3.422-48.547l166.114-48.282c14.696-4.271 30.752 1.176 39.14 13.976.292.446.576.9.85 1.361l21.515 37.244c11.631 19.53-2.449 44.28-25.169 44.28z" fill="#565656"/></g></g></g><g><path d="m355.954 273.917c-.274-.461-.558-.915-.85-1.361-8.389-12.8-24.445-18.248-39.14-13.976l-59.964 17.428v79.432h96.3c22.72 0 36.8-24.75 25.17-44.28z" fill="#282828"/></g></g></svg>