<svg id="Icons" enable-background="new 0 0 512 512" height="512" viewBox="0 0 512 512" width="512" xmlns="http://www.w3.org/2000/svg" xmlns:xlink="http://www.w3.org/1999/xlink"><clipPath id="SVGID_2_"><path id="SVGID_7_" d="m512 256c0 70.692-28.654 134.692-74.981 181.019s-110.327 74.981-181.019 74.981-134.692-28.654-181.019-74.981-74.981-110.327-74.981-181.019 28.654-134.692 74.981-181.019 110.327-74.981 181.019-74.981 134.692 28.654 181.019 74.981 74.981 110.327 74.981 181.019z"/></clipPath><g><g><path clip-path="url(#SVGID_2_)" d="m512 256c0 70.692-28.654 134.692-74.981 181.019s-110.327 74.981-181.019 74.981-134.692-28.654-181.019-74.981-74.981-110.327-74.981-181.019 28.654-134.692 74.981-181.019 110.327-74.981 181.019-74.981 134.692 28.654 181.019 74.981 74.981 110.327 74.981 181.019z" fill="#284cb2"/><path clip-path="url(#SVGID_2_)" d="m383.471 557.861h-130.628-130.627v-239.627-239.627h130.627 130.628v239.627z" fill="#fff"/><path clip-path="url(#SVGID_2_)" d="m344.007 134.246c-4.189 0-7.987-1.704-10.738-4.455s-4.455-6.55-4.455-10.739v-20.944-20.945c0-4.189 1.704-7.988 4.455-10.739s6.55-4.455 10.738-4.455c4.189 0 7.987 1.704 10.738 4.455s4.455 6.55 4.455 10.739v20.945 20.945c0 4.189-1.704 7.988-4.455 10.739-2.751 2.75-6.55 4.454-10.738 4.454zm0-65.964c-2.448 0-4.668.996-6.277 2.604s-2.604 3.828-2.604 6.277v20.945 20.945c0 2.448.996 4.668 2.604 6.277 1.608 1.608 3.828 2.604 6.277 2.604 2.448 0 4.668-.996 6.277-2.604 1.608-1.608 2.604-3.828 2.604-6.277v-20.945-20.945c0-2.448-.996-4.668-2.604-6.277-1.609-1.608-3.829-2.604-6.277-2.604z" fill="#f95d95"/><path clip-path="url(#SVGID_2_)" d="m201.161 210.538h-21.186-21.186v-21.186-21.186h21.186 21.186v21.186z" fill="#f4b500"/><path clip-path="url(#SVGID_2_)" d="m353.316 210.538h-68.052-68.053v-21.186-21.186h68.053 68.052v21.186z" fill="#e8f3fc"/><path clip-path="url(#SVGID_2_)" d="m201.161 277.186h-21.186-21.186v-21.186-21.186h21.186 21.186v21.186z" fill="#f95d95"/><path clip-path="url(#SVGID_2_)" d="m353.316 277.186h-68.052-68.053v-21.186-21.186h68.053 68.052v21.186z" fill="#e8f3fc"/><path clip-path="url(#SVGID_2_)" d="m201.161 343.834h-21.186-21.186v-21.186-21.186h21.186 21.186v21.186z" fill="#f4b500"/><path clip-path="url(#SVGID_2_)" d="m353.316 343.834h-68.052-68.053v-21.186-21.186h68.053 68.052v21.186z" fill="#e8f3fc"/><path clip-path="url(#SVGID_2_)" d="m201.161 410.482h-21.186-21.186v-21.186-21.186h21.186 21.186v21.186z" fill="#f95d95"/><path clip-path="url(#SVGID_2_)" d="m353.316 410.482h-68.052-68.053v-21.186-21.186h68.053 68.052v21.186z" fill="#e8f3fc"/></g></g></svg>